<svg id="df090a11-b4f7-4e4b-9644-86bb0dad6211" data-name="Layer 1" xmlns="http://www.w3.org/2000/svg" viewBox="0 0 37.33 21.81"><defs><style>.\32 94d7820-6512-4ebb-a2af-653295640631{fill:#fff;}</style></defs><title>Logo-no-circle-back</title><path class="294d7820-6512-4ebb-a2af-653295640631" d="M33.78,26.52A6.33,6.33,0,0,1,39,23.93a6.5,6.5,0,0,1,6.58,6.54A6.58,6.58,0,0,1,35.14,35.8l-2.72,3.44a10.93,10.93,0,1,0,6.53-19.68,11,11,0,0,0-7.3,2.93C30.22,23.82,24.09,31,24.09,31a.82.82,0,1,1-.41-1.31l2.61-3.47a5.12,5.12,0,1,0,.94,7.7S33.05,27.36,33.78,26.52Z" transform="translate(-12.56 -19.57)"/><path class="294d7820-6512-4ebb-a2af-653295640631" d="M32.42,30.37" transform="translate(-12.56 -19.57)"/><path class="294d7820-6512-4ebb-a2af-653295640631" d="M28.67,34.42A6.33,6.33,0,0,1,23.46,37a6.5,6.5,0,0,1-6.58-6.54,6.58,6.58,0,0,1,10.45-5.33L30,21.7a10.93,10.93,0,1,0-6.53,19.68,11,11,0,0,0,7.3-2.93c1.42-1.32,7.56-8.49,7.56-8.49a.82.82,0,1,1,.41,1.31l-2.61,3.47A5.12,5.12,0,1,0,39,25.35,5.18,5.18,0,0,0,35.21,27S29.4,33.58,28.67,34.42Z" transform="translate(-12.56 -19.57)"/></svg>